<svg width="790" height="711" viewBox="0 0 790 711" fill="none" xmlns="http://www.w3.org/2000/svg">
<path d="M75.7349 715.143H236.007L249.304 679.319C254.013 666.626 263.648 656.424 275.976 650.847C287.585 645.588 303.208 636.05 318.353 619.035C347.824 585.931 363.459 550.411 363.459 550.411L264.132 549.927C264.132 549.927 273.073 494.319 223.704 420.467C218.418 412.562 216.017 403.073 216.842 393.597L221.52 339.734C221.52 339.734 255.067 302.215 234.487 255.661C234.487 255.661 214.807 228.388 206.996 238.373C206.996 238.373 147.545 380.066 142.135 401.13C136.724 422.199 129.502 435.438 136.724 501.653C138.635 519.183 139.324 533.8 139.299 545.822C139.256 568.898 134.106 591.675 124.247 612.533L75.7349 715.143Z" fill="#B96B4A"/>
<path opacity="0.2" d="M225.218 623.226C210.34 606.696 189.673 609.304 167.945 601.765C146.211 594.227 139.243 539.861 139.243 539.861V539.854C139.28 541.904 139.293 543.897 139.293 545.816C139.249 568.891 134.1 591.668 124.241 612.527L75.741 715.143H236.014L249.31 679.319C254.019 666.626 263.654 656.423 275.982 650.847C285.86 646.376 298.647 638.794 311.571 626.145C267.42 644.712 240.096 639.756 225.218 623.226Z" fill="#F6C19D"/>
<path d="M154.351 73.2314C191.199 131.417 282.013 183.274 282.013 183.274C282.013 183.274 209.818 177.406 173.994 130.709L186.986 119.941C186.986 119.941 176.662 120.941 168.013 121.941C160.04 108.714 154.878 92.6741 154.351 73.2314Z" fill="#9C75C4"/>
<path d="M251.028 97.3C245.426 99.846 237.137 103.721 237.137 103.721L245.122 92.2391C235.821 84.9986 225.584 80.1674 215.44 77.0067C211.326 82.9991 206.493 89.6931 206.493 89.6931L205.531 74.4048C178.343 68.5428 154.345 73.2312 154.345 73.2312C191.193 131.416 282.007 183.274 282.007 183.274C281.597 140.52 268.593 113.824 251.028 97.3Z" fill="#AC8CCE"/>
<path d="M140.819 155.336C151.658 148.959 162.653 145.525 173.337 144.127C176.557 147.804 180.503 152.132 180.503 152.132L180.72 143.469C221.787 141.501 256.414 167.389 256.414 167.389C232.911 181.696 212.685 185.714 196.026 184.522C194.978 181.497 193.482 176.983 193.482 176.983L190.697 183.95C182.693 182.808 175.607 180.491 169.465 177.641C170.942 174.027 172.493 169.891 172.493 169.891L163.738 174.692C148.711 166.184 140.819 155.336 140.819 155.336Z" fill="#5B99E6"/>
<path d="M196.032 184.515C194.984 181.491 193.489 176.977 193.489 176.977L190.703 183.944C182.699 182.802 175.614 180.485 169.471 177.635C170.948 174.021 172.499 169.885 172.499 169.885L163.745 174.685C148.711 166.172 140.819 155.317 140.819 155.317C188.599 149.853 256.42 167.364 256.42 167.364C232.918 181.696 212.697 185.708 196.032 184.515Z" fill="#2671D1"/>
<path d="M545.224 147.952L541.762 171.852L560.307 159.453L617.071 132.906L573.162 136.587C573.162 136.587 550.795 141.562 549.585 142.562C548.369 143.567 545.224 147.952 545.224 147.952Z" fill="#085FCC"/>
<path d="M525.779 133.52L617.071 132.906L545.224 147.952L525.779 133.52Z" fill="#88B2E7"/>
<path d="M574.571 172L550.646 154.41L617.071 132.906L574.571 172Z" fill="#88B2E7"/>
<path d="M535.811 162.968C539.304 161.652 541.879 161.366 541.904 161.366L541.73 159.745C541.618 159.758 538.92 160.056 535.234 161.44L535.811 162.968Z" fill="#141414"/>
<path d="M478.284 308.512C482.062 306.599 485.617 304.531 488.85 302.37L489.756 303.73C486.467 305.929 482.856 308.021 479.022 309.965L478.284 308.512ZM498.473 294.888C501.538 292.087 504.299 289.063 506.675 285.908L507.978 286.89C505.54 290.125 502.71 293.217 499.571 296.092L498.473 294.888ZM512.973 275.526C513.773 273.849 514.505 272.098 515.157 270.322C515.895 268.316 516.546 266.217 517.099 264.087L518.674 264.497C518.11 266.677 517.44 268.832 516.689 270.887C516.019 272.707 515.268 274.501 514.443 276.227L512.973 275.526ZM519.556 239.838L521.187 239.801C521.287 244.229 521.156 248.296 520.784 252.221L519.158 252.065C519.531 248.209 519.655 244.21 519.556 239.838ZM517.241 215.385L518.854 215.155C519.537 219.93 520.027 223.83 520.387 227.431L518.768 227.593C518.401 224.016 517.918 220.135 517.241 215.385ZM515.417 203.102C514.772 198.705 514.561 194.539 514.803 190.72L516.428 190.819C516.199 194.526 516.404 198.581 517.03 202.86L517.043 202.953L515.43 203.176L515.417 203.102ZM517.465 178.455C519.103 174.438 521.485 170.935 524.538 168.048L525.661 169.234C522.776 171.96 520.523 175.27 518.972 179.07L517.465 178.455Z" fill="#141414"/>
<path d="M461.519 317.317C463.617 316.591 465.683 315.821 467.668 315.044L467.072 313.529C465.112 314.299 463.064 315.057 460.986 315.783L461.519 317.317Z" fill="#141414"/>
<path d="M453.063 143.891C453.063 143.891 487.014 121.151 494.763 136.135C502.512 151.119 450.656 204.132 450.656 204.132L453.063 143.891Z" fill="#B96B4A"/>
<path d="M453.063 242.973C453.063 242.973 487.013 220.233 494.763 235.217C502.512 250.201 450.656 303.214 450.656 303.214L453.063 242.973Z" fill="#B96B4A"/>
<path d="M453.063 310.479C453.063 310.479 487.014 287.739 494.763 302.723C502.518 317.701 450.662 370.72 450.662 370.72L453.063 310.479Z" fill="#B96B4A"/>
<path d="M429.616 118.407H243.254C229.375 118.407 218.126 129.665 218.126 143.557V453.95V524.765C218.126 538.768 229.499 549.915 243.254 549.915H429.616C443.49 549.915 454.744 538.656 454.744 524.765V214.379V143.563C454.751 129.547 443.365 118.407 429.616 118.407Z" fill="#141414"/>
<path opacity="0.2" d="M235.101 438.934C235.101 438.934 201.393 521.523 204.663 537.134C207.932 552.752 228.388 573.629 278.576 566.674C328.763 559.713 363.452 550.404 363.452 550.404C363.452 550.404 365.549 438.946 363.452 433.295C361.355 427.644 271.118 387.523 267.563 387.523C264.014 387.523 235.101 438.934 235.101 438.934Z" fill="#F6C19D"/>
<path d="M442.565 152.69H230.305V515.643H442.565V152.69Z" fill="white"/>
<path d="M380.558 400.273H292.312C280.568 400.273 271.044 390.741 271.044 378.986V256.766C271.044 245.011 280.567 235.485 292.306 235.485H380.552C392.297 235.485 401.814 245.017 401.814 256.766V378.992C401.827 390.747 392.303 400.273 380.558 400.273Z" fill="#DAE7F7"/>
<path d="M290.966 302.222L301.328 351.993C301.781 354.16 303.636 355.706 305.782 355.706H367.076C369.223 355.706 371.078 354.16 371.531 351.993L381.892 302.222H290.966ZM309.251 350.881C307.867 350.881 306.738 349.757 306.738 348.366L303.257 313.089C303.257 311.704 304.38 310.574 305.77 310.574C307.154 310.574 308.283 311.698 308.283 313.089L311.764 348.366C311.757 349.757 310.634 350.881 309.251 350.881ZM321.871 350.881C320.487 350.881 319.358 349.757 319.358 348.366L317.968 313.089C317.968 311.704 319.091 310.574 320.481 310.574C321.864 310.574 322.994 311.698 322.994 313.089L324.383 348.366C324.383 349.757 323.26 350.881 321.871 350.881ZM338.945 348.366C338.945 349.751 337.822 350.881 336.432 350.881C335.049 350.881 333.92 349.757 333.92 348.366V313.095C333.92 311.71 335.043 310.58 336.432 310.58C337.816 310.58 338.945 311.704 338.945 313.095V348.366ZM353.513 348.366C353.513 349.751 352.39 350.881 351 350.881C349.617 350.881 348.487 349.757 348.487 348.366L349.877 313.089C349.877 311.704 351 310.574 352.39 310.574C353.774 310.574 354.903 311.698 354.903 313.089L353.513 348.366ZM366.133 348.366C366.133 349.751 365.01 350.881 363.62 350.881C362.237 350.881 361.107 349.757 361.107 348.366L364.594 313.095C364.594 311.71 365.717 310.58 367.107 310.58C368.491 310.58 369.62 311.704 369.62 313.095L366.133 348.366Z" fill="#88B2E7"/>
<path d="M382.55 306.24H290.321C288.1 306.24 286.307 304.439 286.307 302.222C286.307 299.999 288.106 298.204 290.321 298.204H382.55C384.771 298.204 386.564 300.005 386.564 302.222C386.564 304.439 384.771 306.24 382.55 306.24Z" fill="#085FCC"/>
<path d="M309.691 298.502V295.031C309.691 289.243 314.376 284.555 320.158 284.555H352.719C358.501 284.555 363.186 289.243 363.186 295.031V298.502C363.186 299.744 364.191 300.75 365.432 300.75C366.673 300.75 367.678 299.744 367.678 298.502V295.031C367.678 286.759 360.977 280.053 352.713 280.053H320.152C311.888 280.053 305.187 286.759 305.187 295.031V298.502C305.187 299.744 306.192 300.75 307.433 300.75C308.686 300.756 309.691 299.744 309.691 298.502Z" fill="#88B2E7"/>
<path d="M379.987 141.283H293.224C292.101 141.283 291.189 140.37 291.189 139.246V138.768C291.189 137.644 292.101 136.731 293.224 136.731H379.987C381.11 136.731 382.022 137.644 382.022 138.768V139.246C382.022 140.37 381.11 141.283 379.987 141.283Z" fill="white"/>
<path d="M213.895 372.229C213.895 372.229 215.173 376.992 218.07 379.339L221.514 339.727C221.514 339.727 246.189 312.125 240.226 274.898C238.185 262.156 231.85 250.425 222.165 241.906C216.637 237.043 210.563 233.79 206.983 238.366C206.983 238.366 179.026 304.996 159.712 353.668L213.895 372.229Z" fill="#B96B4A"/>
<path opacity="0.3" d="M346.738 533.13C346.738 538.892 342.072 543.562 336.314 543.562C330.557 543.562 325.891 538.892 325.891 533.13C325.891 527.367 330.557 522.697 336.314 522.697C342.072 522.691 346.738 527.367 346.738 533.13Z" fill="#DAE7F7"/>
<path d="M339.423 537.477H333.206C332.523 537.477 331.971 536.924 331.971 536.241V530.019C331.971 529.336 332.523 528.783 333.206 528.783H339.423C340.105 528.783 340.657 529.336 340.657 530.019V536.241C340.657 536.918 340.105 537.477 339.423 537.477ZM333.206 529.119C332.71 529.119 332.306 529.522 332.306 530.019V536.241C332.306 536.738 332.71 537.141 333.206 537.141H339.423C339.919 537.141 340.322 536.738 340.322 536.241V530.019C340.322 529.522 339.919 529.119 339.423 529.119H333.206Z" fill="#DAE7F7"/>
<path d="M442.565 494.17H230.305V515.637H442.565V494.17Z" fill="#D0E1F5"/>
<path d="M442.565 152.69H230.305V171.953H442.565V152.69Z" fill="#D0E1F5"/>
<path d="M212.015 277.5C219.739 273.942 223.772 253.829 225.218 244.788C219.02 238.547 211.239 232.927 206.989 238.367C206.989 238.367 200.834 253.04 192.303 273.644C198.135 276.892 206.245 280.158 212.015 277.5Z" fill="#DF9866"/>
<path d="M121.914 620.488C138.871 630.914 193.47 662.1 249.924 668.744C253.231 669.135 255.557 672.165 254.577 674.786L244.712 701.227C244.061 702.978 242.094 703.997 239.891 703.729C223.251 701.705 154.605 691.366 106.31 653.971C104.666 652.698 103.971 650.767 104.585 649.121L114.649 622.14C115.598 619.594 119.153 618.793 121.914 620.488Z" fill="#141414"/>
<path d="M116.957 645.767L116.771 645.699C115.778 645.326 115.275 644.227 115.648 643.234L118.682 635.093C119.054 634.099 120.152 633.596 121.145 633.969L121.331 634.037C122.324 634.409 122.826 635.509 122.454 636.502L119.42 644.643C119.054 645.637 117.95 646.14 116.957 645.767Z" fill="black"/>
<path d="M127.114 652.034L126.927 651.965C125.935 651.593 125.432 650.494 125.804 649.5L128.838 641.359C129.211 640.366 130.309 639.863 131.302 640.235L131.488 640.304C132.48 640.676 132.983 641.775 132.611 642.769L129.577 650.91C129.204 651.897 128.106 652.406 127.114 652.034Z" fill="black"/>
<path d="M137.283 658.255L137.096 658.187C136.104 657.815 135.601 656.715 135.973 655.722L139.007 647.581C139.38 646.587 140.478 646.084 141.471 646.457L141.657 646.525C142.649 646.898 143.152 647.997 142.78 648.99L139.746 657.131C139.38 658.119 138.275 658.622 137.283 658.255Z" fill="black"/>
<path d="M147.749 663.316L147.563 663.248C146.571 662.875 146.068 661.776 146.44 660.782L149.474 652.641C149.847 651.648 150.945 651.145 151.937 651.517L152.124 651.586C153.116 651.958 153.619 653.057 153.247 654.051L150.213 662.192C149.847 663.179 148.742 663.682 147.749 663.316Z" fill="black"/>
<path d="M158.049 669.197L157.863 669.128C156.87 668.756 156.367 667.657 156.74 666.663L159.774 658.522C160.146 657.529 161.244 657.026 162.237 657.398L162.423 657.467C163.416 657.839 163.918 658.938 163.546 659.932L160.512 668.073C160.14 669.06 159.042 669.563 158.049 669.197Z" fill="black"/>
<path d="M168.801 673.861L168.615 673.793C167.622 673.42 167.12 672.321 167.492 671.327L170.526 663.186C170.898 662.193 171.996 661.69 172.989 662.062L173.175 662.131C174.168 662.503 174.671 663.602 174.298 664.596L171.264 672.737C170.892 673.724 169.794 674.227 168.801 673.861Z" fill="black"/>
<path d="M179.764 677.953L179.578 677.884C178.585 677.512 178.083 676.413 178.455 675.419L181.489 667.278C181.861 666.285 182.96 665.782 183.952 666.154L184.138 666.222C185.131 666.595 185.634 667.694 185.261 668.688L182.227 676.829C181.855 677.822 180.757 678.325 179.764 677.953Z" fill="black"/>
<path d="M190.939 681.486L190.752 681.418C189.76 681.045 189.257 679.946 189.629 678.952L192.663 670.811C193.036 669.818 194.134 669.315 195.126 669.687L195.313 669.756C196.305 670.128 196.808 671.227 196.436 672.221L193.402 680.362C193.029 681.349 191.931 681.852 190.939 681.486Z" fill="black"/>
<path d="M202.566 683.796L202.38 683.728C201.387 683.356 200.884 682.256 201.257 681.263L204.291 673.122C204.663 672.128 205.761 671.625 206.754 671.998L206.94 672.066C207.933 672.439 208.435 673.538 208.063 674.531L205.029 682.672C204.663 683.666 203.558 684.169 202.566 683.796Z" fill="black"/>
<path d="M213.888 686.932L213.702 686.864C212.71 686.491 212.207 685.392 212.579 684.399L215.613 676.258C215.986 675.264 217.084 674.761 218.076 675.134L218.263 675.202C219.255 675.575 219.758 676.674 219.386 677.667L216.352 685.808C215.986 686.796 214.881 687.299 213.888 686.932Z" fill="black"/>
<path d="M225.646 688.9L225.46 688.832C224.467 688.459 223.965 687.36 224.337 686.366L227.371 678.225C227.743 677.232 228.841 676.729 229.834 677.101L230.02 677.17C231.013 677.542 231.515 678.641 231.143 679.635L228.109 687.776C227.737 688.769 226.639 689.272 225.646 688.9Z" fill="black"/>
<path d="M237.416 690.832L237.23 690.763C236.237 690.391 235.734 689.292 236.107 688.298L239.141 680.157C239.513 679.163 240.611 678.66 241.604 679.033L241.79 679.101C242.783 679.474 243.285 680.573 242.913 681.567L239.879 689.708C239.513 690.695 238.409 691.198 237.416 690.832Z" fill="black"/>
<path d="M155.424 681.71L155.468 681.586C155.288 681.561 155.108 681.524 154.934 681.455L141.576 676.463C140.254 675.972 139.615 674.407 140.149 672.979L152.198 640.682C152.732 639.254 154.233 638.496 155.555 638.987L168.913 643.98C169.694 644.271 170.234 644.942 170.439 645.737C171.488 646.196 172.542 646.656 173.616 647.109C173.975 644.396 172.58 641.756 170.092 640.825L156.733 635.832C153.805 634.739 150.461 636.422 149.282 639.589L137.233 671.892C136.054 675.059 137.475 678.524 140.403 679.617L153.761 684.61C155.766 685.361 157.962 684.802 159.532 683.368C158.16 682.828 156.795 682.275 155.424 681.71Z" fill="#AC8CCE"/>
<path d="M152.49 656.082L146.676 653.908C145.634 653.517 144.449 654.12 144.027 655.244C143.605 656.367 144.107 657.597 145.15 657.988L150.963 660.162L152.49 656.082Z" fill="white"/>
<path d="M406.666 391.734C406.666 391.734 377.996 394.144 376.997 401.769C375.992 409.395 378.2 422.839 405.264 425.447H433.296C433.296 425.447 424.907 402.173 425.311 401.372C425.708 400.558 406.666 391.734 406.666 391.734Z" fill="#B96B4A"/>
<path d="M360.667 505.472C356.783 507.533 355.43 512.445 357.639 516.252C370.83 539.023 423.288 629.523 428.016 636.882C433.426 645.308 446.66 665.173 490.562 675.407C534.465 685.64 552.507 715.137 552.507 715.137H687.832C687.832 715.137 655.954 664.571 629.492 533.347C629.492 533.347 609.042 424.397 570.55 428.005C570.55 428.005 547.091 403.328 524.24 408.14C524.24 408.14 480.939 382.258 456.277 382.258L397.049 312.2C391.186 305.264 380.856 303.91 373.646 309.424C371.326 311.2 369.558 313.548 369.074 316.646C367.268 328.085 382.308 356.978 406.362 391.889C430.417 426.801 489.961 537.563 464.101 586.316C464.101 586.316 437.639 566.451 414.782 534.552C395.641 507.837 373.131 498.852 360.667 505.472Z" fill="#B96B4A"/>
<path d="M456.5 382.289C464.361 389.02 471.726 396.323 478.681 403.998C488.081 414.232 499.937 429.402 506.905 441.12C515.69 455.607 521.485 468.312 524.227 484.265L524.048 484.302C520.89 469.318 512.65 453.173 505.465 442.02C500.092 433.302 490.147 419.448 477.608 404.93C471.31 397.658 463.319 389.07 456.376 382.413L456.5 382.289Z" fill="#F19A5E"/>
<path d="M523.855 407.96C530.252 411.232 535.954 415.803 540.992 420.969C546.092 426.111 550.33 431.942 553.978 438.307C557.539 444.622 560.275 451.403 562.106 458.389C563.657 464.934 564.662 469.374 564.829 479.738L564.649 479.751C564.054 472.653 562.763 465.617 560.747 458.793C558.718 452.186 555.864 445.088 552.408 439.195C548.946 432.979 544.733 427.191 539.943 421.932C535.414 416.97 529.495 411.617 523.762 408.121L523.855 407.96Z" fill="#F19A5E"/>
<path d="M570.054 427.509C575.712 431.787 581.432 439.369 584.212 444.486C587.705 450.497 590.472 457.477 592.296 465.121C593.636 470.008 593.972 474.759 594.182 479.726L594.003 479.751C593.171 474.932 592.644 471.343 590.931 465.506C588.301 456.663 586.241 452.112 582.717 445.293C580.613 441.089 575.147 432.762 569.973 427.633L570.054 427.509Z" fill="#F19A5E"/>
<path d="M387.979 533.496C389.176 527.404 382.084 517.735 375.644 510.445C371.624 505.893 365.277 504.192 359.699 506.098C356.578 508.408 355.629 512.786 357.639 516.257C361.182 522.374 367.566 533.39 375.092 546.362C380.726 543.487 386.868 539.134 387.979 533.496Z" fill="#DF9866"/>
<path d="M393.668 339.703C397.087 339.02 412.61 333.853 411.661 331.021L396.348 312.914C393.308 309.318 389.064 307.226 384.678 306.81C384.653 306.81 384.628 306.804 384.603 306.804C384.479 306.791 384.2 306.772 383.803 306.772C381.749 306.772 376.693 307.362 375.582 312.92C374.484 318.416 383.573 331.767 387.575 337.318C388.971 339.237 391.348 340.168 393.668 339.703Z" fill="#DF9866"/>
<path opacity="0.2" d="M552.514 715.142H687.838C687.838 715.142 666.942 681.989 644.935 599.71C635.281 660.292 582.009 656.802 560.871 660.162C536.531 664.03 442.044 644.314 428.804 638.105C434.692 647.096 448.652 665.645 490.569 675.419C534.465 685.646 552.514 715.142 552.514 715.142Z" fill="#F6C19D"/>
<path opacity="0.2" d="M413.516 402.881C440.046 445.548 487.653 543.562 464.101 586.329L479.729 601.772C479.729 601.772 519.227 557.981 456.376 461.408C441.752 438.928 427.215 419.486 413.516 402.881Z" fill="#F6C19D"/>
<path d="M92.1888 379.588C89.3658 377.148 87.0453 375.993 87.0205 375.98L87.7402 374.515C87.8395 374.564 90.2716 375.775 93.2498 378.352L92.1888 379.588Z" fill="#141414"/>
<path d="M94.7761 537.172C91.8476 534.024 89.1797 530.807 86.8531 527.609L88.1684 526.646C90.4578 529.795 93.0823 532.962 95.9673 536.06L94.7761 537.172ZM80.2764 517.04C78.322 513.258 76.7336 509.377 75.561 505.502L77.1183 505.03C78.2599 508.812 79.811 512.6 81.722 516.289L80.2764 517.04ZM73.1723 493.257C72.9986 491.357 72.9055 489.407 72.9055 487.469C72.9055 485.277 73.0172 483.029 73.2468 480.788L74.8661 480.949C74.649 483.141 74.5373 485.333 74.5373 487.469C74.5373 489.357 74.6241 491.257 74.7917 493.108L73.1723 493.257ZM77.0749 468.958L75.499 468.542C76.5041 464.729 77.7822 460.873 79.4078 456.75L80.9216 457.346C79.3209 461.407 78.0676 465.207 77.0749 468.958ZM85.8914 446.125L84.4271 445.411C86.0093 442.157 87.8147 438.661 90.1042 434.42L91.5374 435.196C89.2604 439.418 87.4673 442.89 85.8914 446.125ZM97.4502 424.36L96.0108 423.596L96.0542 423.509C98.1203 419.709 99.7086 415.977 100.776 412.419L102.339 412.884C101.241 416.554 99.6093 420.392 97.4874 424.292L97.4502 424.36ZM102.439 400.515C102.29 396.41 101.322 392.529 99.5535 388.971L101.012 388.244C102.879 392.013 103.909 396.118 104.064 400.459L102.439 400.515Z" fill="#141414"/>
<path d="M108.668 550.114C106.949 548.704 105.274 547.27 103.686 545.854L104.771 544.637C106.341 546.04 108.004 547.456 109.704 548.853L108.668 550.114Z" fill="#141414"/>
<path d="M81.4615 351.986L79.3023 378.259L64.0519 361.071L14.7391 320.646L56.7927 333.903C56.7927 333.903 77.4968 343.969 78.4461 345.298C79.3954 346.627 81.4615 351.986 81.4615 351.986Z" fill="#9369BF"/>
<path d="M103.804 340.697L14.7391 320.646L81.4615 351.986L103.804 340.697Z" fill="#AC8CCE"/>
<path d="M47.2069 371.441L74.6614 357.73L14.7391 320.646L47.2069 371.441Z" fill="#AC8CCE"/>
<path d="M372.12 225.052H368.552C360.189 225.052 353.407 218.265 353.407 209.894V195.55H387.265V209.894C387.265 218.271 380.483 225.052 372.12 225.052Z" fill="#085FCC"/>
<path d="M338.256 225.052H334.689C326.325 225.052 319.544 218.265 319.544 209.894V195.55H353.401V209.894C353.407 218.271 346.626 225.052 338.256 225.052Z" fill="#88B2E7"/>
<path d="M304.399 225.052H300.831C292.468 225.052 285.686 218.265 285.686 209.894V195.55H319.544V209.894C319.544 218.271 312.762 225.052 304.399 225.052Z" fill="#085FCC"/>
<path d="M270.541 225.052H266.973C258.61 225.052 251.828 218.265 251.828 209.894V195.55H285.686V209.894C285.686 218.271 278.905 225.052 270.541 225.052Z" fill="#88B2E7"/>
<path d="M236.677 225.052H233.11C224.746 225.052 217.965 218.265 217.965 209.894V195.55H251.822V209.894C251.822 218.271 245.041 225.052 236.677 225.052Z" fill="#085FCC"/>
<path d="M473.624 225.052H470.057C461.693 225.052 454.912 218.265 454.912 209.894V195.55H488.769V209.894C488.769 218.271 481.988 225.052 473.624 225.052Z" fill="#88B2E7"/>
<path d="M439.761 225.052H436.193C427.83 225.052 421.048 218.265 421.048 209.894V195.55H454.906V209.894C454.906 218.271 448.124 225.052 439.761 225.052Z" fill="#085FCC"/>
<path d="M405.977 225.052H402.41C394.046 225.052 387.265 218.265 387.265 209.894V195.55H421.122V209.894C421.122 218.271 414.347 225.052 405.977 225.052Z" fill="#88B2E7"/>
<path d="M202.82 225.052H199.252C190.889 225.052 184.107 218.265 184.107 209.894V195.55H217.965V209.894C217.965 218.271 211.184 225.052 202.82 225.052Z" fill="#88B2E7"/>
<path d="M348.512 152.69H324.439L319.544 195.556H353.407L348.512 152.69Z" fill="#DAE7F7"/>
<path d="M324.439 152.69H300.366L285.686 195.556H319.544L324.439 152.69Z" fill="#669CDF"/>
<path d="M300.366 152.69H276.286L251.822 195.556H285.686L300.366 152.69Z" fill="#DAE7F7"/>
<path d="M276.287 152.69H252.213L217.965 195.556H251.823L276.287 152.69Z" fill="#669CDF"/>
<path d="M252.213 152.69H228.14L184.101 195.556H217.965L252.213 152.69Z" fill="#DAE7F7"/>
<path d="M444.65 152.69H420.576L454.905 195.556H488.769L444.65 152.69Z" fill="#DAE7F7"/>
<path d="M420.694 152.69H396.621L421.048 195.556H454.905L420.694 152.69Z" fill="#669CDF"/>
<path d="M396.621 152.69H372.548L387.265 195.556H421.122L396.621 152.69Z" fill="#DAE7F7"/>
<path d="M372.548 152.69H348.475L353.407 195.556H387.265L372.548 152.69Z" fill="#669CDF"/>
<path d="M401.609 452.037H271.261C263.933 452.037 257.996 446.094 257.996 438.76V435.631C257.996 428.303 263.933 422.36 271.255 422.36H401.597C408.924 422.36 414.862 428.303 414.862 435.637V438.766C414.868 446.094 408.931 452.037 401.609 452.037Z" fill="#4385D8"/>
<path d="M304.758 439.519C304.758 439.922 304.709 440.289 304.603 440.63C304.504 440.965 304.361 441.276 304.175 441.543C303.989 441.816 303.772 442.052 303.511 442.251C303.251 442.456 302.959 442.623 302.637 442.766C302.314 442.903 301.96 443.008 301.594 443.077C301.222 443.145 300.8 443.182 300.316 443.182H296.984C296.835 443.182 296.693 443.133 296.556 443.027C296.42 442.928 296.351 442.748 296.351 442.493V431.111C296.351 430.856 296.42 430.676 296.556 430.57C296.693 430.471 296.835 430.415 296.984 430.415H299.882C300.645 430.415 301.265 430.49 301.755 430.632C302.239 430.775 302.649 430.986 302.972 431.266C303.294 431.539 303.542 431.881 303.704 432.284C303.865 432.688 303.952 433.141 303.952 433.644C303.952 433.948 303.915 434.234 303.846 434.513C303.772 434.787 303.666 435.048 303.524 435.277C303.381 435.513 303.207 435.718 302.99 435.904C302.779 436.091 302.531 436.24 302.258 436.358C302.606 436.426 302.934 436.544 303.232 436.718C303.536 436.892 303.797 437.115 304.026 437.382C304.25 437.656 304.43 437.966 304.566 438.326C304.69 438.686 304.758 439.084 304.758 439.519ZM302.202 433.806C302.202 433.495 302.159 433.216 302.072 432.967C301.985 432.719 301.855 432.508 301.669 432.328C301.483 432.154 301.247 432.023 300.949 431.93C300.657 431.837 300.266 431.794 299.776 431.794H298.027V435.929H299.956C300.397 435.929 300.75 435.873 301.017 435.755C301.284 435.644 301.507 435.488 301.687 435.29C301.867 435.097 301.991 434.867 302.078 434.607C302.165 434.352 302.202 434.085 302.202 433.806ZM302.972 439.618C302.972 439.239 302.91 438.904 302.792 438.612C302.668 438.32 302.494 438.078 302.258 437.879C302.022 437.68 301.731 437.531 301.383 437.432C301.03 437.326 300.589 437.277 300.062 437.277H298.033V441.773H300.49C300.874 441.773 301.216 441.723 301.501 441.636C301.793 441.543 302.041 441.406 302.264 441.226C302.481 441.046 302.655 440.823 302.779 440.549C302.91 440.282 302.972 439.972 302.972 439.618Z" fill="white"/>
<path d="M316.919 438.462C316.919 439.239 316.807 439.928 316.578 440.536C316.348 441.145 316.026 441.66 315.61 442.083C315.188 442.505 314.679 442.822 314.071 443.039C313.469 443.256 312.781 443.362 312.011 443.362C311.31 443.362 310.665 443.263 310.088 443.058C309.511 442.853 309.015 442.555 308.599 442.157C308.183 441.76 307.867 441.263 307.643 440.661C307.42 440.065 307.308 439.369 307.308 438.587V430.663C307.308 430.613 307.321 430.564 307.346 430.526C307.37 430.489 307.42 430.452 307.482 430.433C307.55 430.408 307.631 430.39 307.736 430.377C307.842 430.359 307.978 430.353 308.152 430.353C308.307 430.353 308.444 430.359 308.555 430.377C308.667 430.396 308.754 430.415 308.816 430.433C308.878 430.458 308.922 430.489 308.946 430.526C308.971 430.564 308.984 430.613 308.984 430.663V438.375C308.984 438.965 309.058 439.487 309.201 439.922C309.343 440.363 309.554 440.729 309.827 441.021C310.1 441.313 310.429 441.536 310.814 441.685C311.199 441.834 311.627 441.909 312.111 441.909C312.601 441.909 313.041 441.834 313.426 441.691C313.811 441.549 314.133 441.331 314.4 441.039C314.667 440.748 314.872 440.394 315.008 439.965C315.151 439.537 315.219 439.04 315.219 438.469V430.663C315.219 430.613 315.231 430.564 315.256 430.526C315.281 430.489 315.331 430.452 315.393 430.433C315.461 430.408 315.548 430.39 315.653 430.377C315.759 430.359 315.895 430.353 316.063 430.353C316.218 430.353 316.354 430.359 316.46 430.377C316.572 430.396 316.652 430.415 316.714 430.433C316.776 430.458 316.82 430.489 316.851 430.526C316.882 430.564 316.894 430.613 316.894 430.663V438.462H316.919Z" fill="white"/>
<path d="M344.336 442.474C344.336 442.604 344.312 442.716 344.268 442.809C344.225 442.902 344.169 442.977 344.094 443.033C344.026 443.095 343.945 443.132 343.852 443.163C343.766 443.188 343.679 443.2 343.586 443.2H343.027C342.853 443.2 342.698 443.182 342.562 443.144C342.432 443.107 342.301 443.045 342.183 442.946C342.066 442.853 341.948 442.722 341.824 442.555C341.706 442.393 341.582 442.182 341.445 441.921L337.555 434.662C337.35 434.289 337.145 433.892 336.941 433.482C336.736 433.072 336.544 432.675 336.364 432.284H336.345C336.357 432.756 336.37 433.24 336.376 433.73C336.382 434.221 336.388 434.712 336.388 435.202V442.908C336.388 442.952 336.376 443.002 336.345 443.045C336.32 443.089 336.271 443.12 336.202 443.144C336.134 443.169 336.047 443.188 335.942 443.207C335.836 443.225 335.7 443.231 335.532 443.231C335.365 443.231 335.228 443.225 335.123 443.207C335.017 443.188 334.93 443.169 334.868 443.144C334.806 443.12 334.763 443.089 334.732 443.045C334.707 443.002 334.688 442.958 334.688 442.908V431.141C334.688 430.88 334.763 430.688 334.912 430.582C335.061 430.47 335.222 430.414 335.402 430.414H336.233C336.432 430.414 336.593 430.433 336.724 430.464C336.854 430.495 336.978 430.551 337.077 430.626C337.183 430.7 337.282 430.806 337.381 430.942C337.48 431.079 337.58 431.247 337.691 431.451L340.682 437.053C340.868 437.394 341.042 437.73 341.216 438.052C341.389 438.375 341.551 438.698 341.712 439.015C341.873 439.332 342.028 439.642 342.183 439.946C342.339 440.251 342.494 440.561 342.643 440.872H342.655C342.643 440.35 342.636 439.81 342.63 439.251C342.624 438.692 342.624 438.146 342.624 437.63V430.706C342.624 430.663 342.636 430.619 342.667 430.576C342.692 430.539 342.742 430.501 342.81 430.47C342.878 430.439 342.965 430.421 343.071 430.408C343.176 430.396 343.319 430.39 343.493 430.39C343.648 430.39 343.778 430.396 343.89 430.408C344.001 430.421 344.088 430.446 344.15 430.47C344.212 430.501 344.256 430.532 344.287 430.576C344.318 430.613 344.33 430.657 344.33 430.706V442.474H344.336Z" fill="white"/>
<path d="M358.414 436.649C358.414 437.68 358.29 438.612 358.048 439.444C357.806 440.27 357.44 440.978 356.962 441.561C356.478 442.145 355.87 442.592 355.145 442.903C354.412 443.213 353.562 443.368 352.594 443.368C351.633 443.368 350.808 443.225 350.107 442.94C349.405 442.654 348.828 442.238 348.376 441.692C347.916 441.145 347.575 440.468 347.358 439.661C347.135 438.854 347.023 437.922 347.023 436.867C347.023 435.861 347.147 434.948 347.389 434.122C347.631 433.302 347.997 432.601 348.481 432.029C348.965 431.452 349.573 431.011 350.305 430.7C351.037 430.39 351.887 430.229 352.855 430.229C353.792 430.229 354.611 430.371 355.312 430.651C356.007 430.936 356.59 431.346 357.049 431.887C357.515 432.427 357.856 433.097 358.085 433.898C358.296 434.7 358.414 435.619 358.414 436.649ZM356.615 436.767C356.615 436.041 356.553 435.37 356.423 434.749C356.292 434.128 356.081 433.588 355.784 433.128C355.486 432.675 355.089 432.315 354.586 432.06C354.09 431.806 353.469 431.675 352.737 431.675C351.999 431.675 351.385 431.812 350.888 432.091C350.392 432.365 349.982 432.737 349.672 433.197C349.362 433.656 349.139 434.197 349.002 434.811C348.866 435.426 348.804 436.072 348.804 436.749C348.804 437.5 348.866 438.189 348.99 438.817C349.114 439.45 349.325 439.99 349.623 440.45C349.92 440.909 350.311 441.263 350.808 441.518C351.304 441.772 351.924 441.897 352.675 441.897C353.413 441.897 354.04 441.76 354.543 441.481C355.045 441.201 355.455 440.829 355.765 440.363C356.075 439.891 356.292 439.351 356.423 438.73C356.553 438.109 356.615 437.457 356.615 436.767Z" fill="white"/>
<path d="M373.088 442.804C373.063 442.897 373.019 442.971 372.97 443.027C372.92 443.083 372.846 443.127 372.753 443.158C372.66 443.189 372.548 443.207 372.411 443.22C372.275 443.232 372.114 443.238 371.915 443.238C371.71 443.238 371.537 443.232 371.4 443.22C371.257 443.207 371.139 443.183 371.053 443.158C370.96 443.127 370.891 443.083 370.848 443.027C370.804 442.971 370.767 442.897 370.742 442.804L368.075 433.166H368.056L365.593 442.804C365.574 442.897 365.543 442.971 365.493 443.027C365.45 443.083 365.382 443.127 365.295 443.158C365.208 443.189 365.096 443.207 364.966 443.22C364.83 443.232 364.656 443.238 364.451 443.238C364.234 443.238 364.054 443.232 363.911 443.22C363.769 443.207 363.651 443.183 363.558 443.158C363.465 443.127 363.396 443.083 363.347 443.027C363.297 442.971 363.26 442.897 363.241 442.804L359.872 431.018C359.835 430.869 359.81 430.751 359.81 430.664C359.804 430.577 359.835 430.515 359.891 430.465C359.947 430.421 360.04 430.39 360.164 430.378C360.288 430.366 360.455 430.359 360.666 430.359C360.871 430.359 361.033 430.366 361.15 430.372C361.268 430.384 361.361 430.397 361.423 430.428C361.485 430.453 361.529 430.49 361.554 430.539C361.578 430.583 361.597 430.645 361.61 430.72L364.476 441.413H364.488L367.212 430.738C367.231 430.664 367.256 430.608 367.287 430.558C367.318 430.508 367.361 430.471 367.429 430.446C367.498 430.421 367.591 430.403 367.708 430.384C367.833 430.372 367.988 430.366 368.186 430.366C368.372 430.366 368.515 430.372 368.627 430.384C368.738 430.397 368.819 430.415 368.887 430.446C368.956 430.471 368.999 430.508 369.03 430.558C369.061 430.608 369.086 430.67 369.104 430.738L372.033 441.413H372.052L374.862 430.732C374.881 430.664 374.899 430.608 374.918 430.558C374.937 430.508 374.98 430.471 375.042 430.446C375.104 430.421 375.191 430.403 375.309 430.384C375.421 430.372 375.576 430.366 375.768 430.366C375.967 430.366 376.122 430.372 376.24 430.39C376.351 430.409 376.438 430.44 376.488 430.484C376.544 430.527 376.568 430.595 376.562 430.682C376.556 430.769 376.544 430.887 376.506 431.036L373.088 442.804Z" fill="white"/>
<path d="M318.475 430.909L323.205 438.605V444H324.79V438.605L329.52 430.909H327.705L324.074 437.02H323.921L320.29 430.909H318.475Z" fill="white"/>
</svg>
