<svg width="160" height="115" viewBox="0 0 160 115" fill="none" xmlns="http://www.w3.org/2000/svg">
<path d="M99.5942 36.3899V48.706H109.053V55.4282H99.5942V86.9707C99.5942 89.0077 100.016 90.5433 100.858 91.5775C101.701 92.5803 103.137 93.0817 105.166 93.0817C106.165 93.0817 107.539 92.8937 109.287 92.5176V99.5688C107.008 100.196 104.792 100.509 102.638 100.509C98.7669 100.509 95.8481 99.3338 93.8814 96.9834C91.9147 94.633 90.9313 91.2954 90.9313 86.9707V55.4282H81.7065V48.706H90.9313V36.3899H99.5942Z" fill="#F5F7FA"/>
<path d="M140.239 100.509C133.371 100.509 127.784 98.2526 123.476 93.7398C119.168 89.1957 117.014 83.1317 117.014 75.5477V73.9494C117.014 68.9039 117.966 64.4068 119.87 60.4581C121.805 56.4781 124.49 53.3755 127.924 51.1505C131.389 48.8941 135.135 47.7659 139.162 47.7659C145.749 47.7659 150.869 49.9439 154.521 54.3C158.174 58.6561 160 64.8925 160 73.0092V76.6289H125.676C125.801 81.6431 127.253 85.7014 130.031 88.804C132.841 91.8752 136.4 93.4108 140.708 93.4108C143.767 93.4108 146.358 92.784 148.481 91.5304C150.604 90.2769 152.461 88.6159 154.053 86.5476L159.344 90.6843C155.099 97.2341 148.73 100.509 140.239 100.509ZM139.162 54.9111C135.666 54.9111 132.732 56.196 130.359 58.7658C127.986 61.3042 126.519 64.8768 125.957 69.4836H151.337V68.8255C151.087 64.4068 149.901 60.9908 147.778 58.5777C145.656 56.1333 142.784 54.9111 139.162 54.9111Z" fill="#F5F7FA"/>
<path d="M42.7611 89.1782C40.4617 90.51 38.0295 91.1759 35.4647 91.1759C32.782 91.1759 30.5857 90.4508 28.8759 89.0006C27.166 87.5505 26.3111 85.538 26.3111 82.9633C26.3111 77.0739 31.3227 74.1292 41.3461 74.1292H47.7581V83.9843C46.7263 86.1151 45.0606 87.8465 42.7611 89.1782Z" fill="#F5F7FA"/>
<path fill-rule="evenodd" clip-rule="evenodd" d="M78.7444 74.2432C78.7444 96.7526 61.1169 115 39.3722 115C17.6275 115 0 96.7526 0 74.2432C0 51.7338 17.6275 33.4863 39.3722 33.4863C61.1169 33.4863 78.7444 51.7338 78.7444 74.2432ZM47.8907 92.3745C48.1855 94.8013 48.5688 96.4882 49.0405 97.4352H57.6193V96.7249C56.499 94.1206 55.9389 90.6136 55.9389 86.2039V64.0965C55.821 59.2429 54.1996 55.44 51.0746 52.6877C47.9497 49.9057 43.6308 48.5148 38.118 48.5148C34.6393 48.5148 31.4407 49.1659 28.5221 50.468C25.633 51.7702 23.3336 53.5459 21.6237 55.7951C19.9433 58.0148 19.1031 60.3232 19.1031 62.7203H27.3281C27.3281 60.6191 28.3157 58.8286 30.2909 57.3489C32.2661 55.8691 34.713 55.1292 37.6316 55.1292C40.9628 55.1292 43.4834 55.9875 45.1933 57.704C46.9031 59.3909 47.7581 61.6697 47.7581 64.5404V68.3138H39.7984C32.9294 68.3138 27.5935 69.7048 23.7905 72.4867C20.017 75.239 18.1303 79.1159 18.1303 84.1175C18.1303 88.2312 19.6338 91.6346 22.6408 94.3277C25.6772 96.9913 29.5539 98.3231 34.2708 98.3231C39.5478 98.3231 44.0878 96.3402 47.8907 92.3745Z" fill="#F5F7FA"/>
<path fill-rule="evenodd" clip-rule="evenodd" d="M30.7469 0.724481C32.0179 0.141819 35.7869 -1.33328 36.9183 2.93712L44.9926 25.7273C45.3232 26.9664 45.551 28.1022 45.5289 29.0684C43.5159 28.7734 41.4587 28.6185 39.3722 28.6185C38.0571 28.6185 36.764 28.6849 35.4783 28.8029L22.32 10.6814C19.4473 7.3329 22.7828 5.03913 23.9804 4.31633L30.7469 0.724481Z" fill="#F5F7FA"/>
</svg>
